<svg width="539" height="230" viewBox="0 0 539 230" fill="none" xmlns="http://www.w3.org/2000/svg">
<g filter="url(#filter0_d_102_15178)">
<path d="M48.4276 181.713C48.4276 164.717 48.9895 147.16 48.9895 131.428C48.9895 129.04 47.8658 127.636 45.197 127.636C42.3878 127.636 40 126.231 40 121.736C40 117.663 42.2474 116.399 44.7757 114.432C48.1467 111.904 49.6918 109.095 51.2368 105.162C54.6079 96.3129 58.5408 82.6882 81.7167 82.6882C94.7796 82.6882 104.893 86.902 104.893 91.3968C104.893 97.2961 100.258 107.55 94.6391 107.55C92.2513 107.55 90.4253 106.005 88.7398 103.898C86.2115 100.667 83.5427 95.1892 80.5931 95.1892C77.6434 95.1892 76.8006 98.7007 76.8006 104.6V109.095C76.8006 111.483 78.0648 112.887 80.4526 112.887H91.1276C94.3582 112.887 95.3414 114.573 95.3414 118.506C95.3414 124.545 92.5322 127.636 89.723 127.636H80.4526C78.0648 127.636 76.8006 129.04 76.8006 131.428V154.885C76.8006 171.178 77.222 177.639 77.222 181.994C77.222 186.769 73.57 190 63.176 190C50.2536 190 48.4276 186.208 48.4276 181.713Z" fill="#A3D3FF"/>
<path d="M104.588 169.633C104.588 167.526 106.274 150.25 106.274 139.434C106.274 125.107 99.6724 126.652 99.6724 121.315C99.6724 114.432 112.033 111.061 121.444 111.061C133.383 111.061 127.203 123.984 130.433 123.984C133.664 123.984 137.316 111.061 149.676 111.061C157.121 111.061 160.773 115.135 160.773 122.579C160.773 131.007 157.261 142.103 150.8 142.103C144.339 142.103 141.67 132.973 137.737 132.973C135.209 132.973 133.102 135.642 133.102 149.126C133.102 158.958 133.945 166.824 133.945 168.791C133.945 171.6 134.226 177.359 119.337 177.359C108.24 177.359 104.588 174.128 104.588 169.633Z" fill="#A3D3FF"/>
<path d="M169.774 161.206C169.774 154.744 171.038 145.895 171.038 138.03C171.038 125.529 165.419 126.371 165.419 121.315C165.419 114.713 177.218 111.202 185.786 111.202C195.478 111.202 199.27 115.977 199.27 126.231C199.27 133.113 198.006 145.474 198.006 152.497C198.006 163.312 204.187 162.048 204.187 167.386C204.187 173.847 193.512 177.78 184.663 177.78C174.83 177.78 169.774 172.864 169.774 161.206Z" fill="#A3D3FF"/>
<path d="M207.628 144.21C207.628 123.983 222.095 110.078 244.288 110.078C264.374 110.078 274.487 119.067 274.487 131.147C274.487 143.227 263.952 151.654 239.231 151.654C237.546 151.654 236.703 152.356 236.703 153.621C236.703 157.975 241.057 160.503 248.642 160.503C258.615 160.503 264.093 155.166 268.587 155.166C271.116 155.166 272.52 156.57 272.52 159.239C272.52 166.122 263.531 178.342 241.9 178.342C221.814 178.342 207.628 165.419 207.628 144.21ZM247.366 131.568C247.366 124.967 245.821 122.157 242.591 122.157C238.939 122.157 236.27 125.669 236.27 135.642C236.27 140.136 237.534 141.401 239.641 141.401C244.557 141.401 247.366 138.591 247.366 131.568Z" fill="#A3D3FF"/>
<path d="M282.481 169.493C282.481 165.419 284.729 152.216 284.729 138.451C284.729 124.686 278.127 126.652 278.127 121.315C278.127 114.432 290.488 111.061 299.899 111.061C311.276 111.061 305.657 120.331 308.888 120.331C312.119 120.331 316.754 110.078 331.362 110.078C345.97 110.078 350.464 122.157 350.464 134.658C350.464 139.434 349.2 151.795 349.2 155.025C349.2 163.172 356.083 161.346 356.083 166.543C356.083 172.442 348.638 177.639 338.244 177.639C327.85 177.639 321.529 172.021 321.529 160.644C321.529 153.761 322.653 141.26 322.653 136.484C322.653 131.709 322.372 127.495 318.861 127.495C315.068 127.495 311.838 133.394 311.838 161.346V168.931C311.838 174.128 309.169 177.499 296.387 177.499C286.274 177.499 282.481 174.128 282.481 169.493Z" fill="#A3D3FF"/>
<path d="M359.407 144.069C359.407 124.124 370.925 110.078 385.954 110.078C395.084 110.078 398.174 114.432 400.14 114.432C401.264 114.432 401.686 113.73 401.686 112.747V108.111C401.686 100.527 393.96 99.2624 393.96 94.0654C393.96 87.6042 405.899 84.2332 414.327 84.2332C423.597 84.2332 427.811 88.8683 427.811 98.841C427.811 111.623 426.968 129.602 426.968 147.3C426.968 163.172 434.132 160.784 434.132 166.543C434.132 172.302 425.985 177.499 415.732 177.499C402.528 177.499 407.023 167.526 403.792 167.526C400.562 167.526 396.769 177.499 383.707 177.499C367.835 177.499 359.407 164.015 359.407 144.069ZM400.281 142.243C400.281 132.552 399.157 124.686 394.241 124.686C389.606 124.686 388.201 132.552 388.201 142.665C388.201 154.744 389.887 160.222 393.679 160.222C397.472 160.222 400.281 155.587 400.281 142.243Z" fill="#A3D3FF"/>
<path d="M437.363 165.841C437.363 160.222 441.015 153.199 446.212 153.199C452.392 153.199 458.01 166.122 468.404 166.122C470.652 166.122 472.478 164.717 472.478 162.47C472.478 159.661 469.528 157.554 457.729 152.918C445.79 148.283 438.065 141.822 438.065 130.726C438.065 119.629 448.038 110.219 468.404 110.219C486.945 110.219 496.918 115.275 496.918 121.034C496.918 126.793 492.844 133.675 487.788 133.675C481.186 133.675 477.253 122.298 468.264 122.298C465.595 122.298 463.91 123.562 463.91 125.529C463.91 128.197 465.455 130.023 477.675 134.659C489.614 139.434 498.744 145.053 498.744 156.851C498.744 168.65 488.35 178.201 467.842 178.201C449.021 178.201 437.363 172.021 437.363 165.841Z" fill="#A3D3FF"/>
</g>
<path d="M128.232 82.3723V96.5003H126.36V89.8167C126.36 88.3887 126.43 86.9958 126.57 85.6263L123.948 92.7898H122.134L119.512 85.6263C119.653 86.9139 119.723 88.3068 119.723 89.7933V96.5003H117.874V82.3723H120.062L123.059 90.7414L126.055 82.3723H128.244H128.232Z" fill="#223B52"/>
<path d="M133.149 82.3255C133.149 83.0981 132.762 83.4843 132.002 83.4843C131.241 83.4843 130.854 83.0981 130.854 82.3255C130.854 81.553 131.241 81.1667 132.002 81.1667C132.762 81.1667 133.149 81.553 133.149 82.3255ZM131.018 84.6666H132.973V96.5003H131.018V84.6666Z" fill="#223B52"/>
<path d="M137.643 85.0645C138.533 84.6782 139.364 84.4792 140.136 84.4792C140.909 84.4792 141.541 84.7134 142.033 85.1816C142.524 85.6498 142.77 86.3169 142.77 87.1948V96.512H140.769V87.5343C140.769 86.7149 140.359 86.3052 139.54 86.3052C138.943 86.3052 138.334 86.4574 137.725 86.7617V96.512H135.771V84.5378H137.643V85.0762V85.0645Z" fill="#223B52"/>
<path d="M147.335 85.0645C148.225 84.6782 149.056 84.4792 149.828 84.4792C150.601 84.4792 151.233 84.7134 151.725 85.1816C152.216 85.6498 152.462 86.3169 152.462 87.1948V96.512H150.46V87.5343C150.46 86.7149 150.051 86.3052 149.231 86.3052C148.634 86.3052 148.026 86.4574 147.417 86.7617V96.512H145.462V84.5378H147.335V85.0762V85.0645Z" fill="#223B52"/>
<path d="M154.932 93.3283V87.5811C154.932 86.5862 155.224 85.7902 155.81 85.1933C156.395 84.608 157.284 84.3037 158.478 84.3037C159.672 84.3037 160.55 84.5963 161.124 85.1933C161.697 85.7785 161.978 86.5745 161.978 87.5811V91.397H156.851V93.2346C156.851 93.7848 157.027 94.1945 157.366 94.4637C157.706 94.7329 158.303 94.8616 159.157 94.8616C160.012 94.8616 160.843 94.7329 161.65 94.4871V96.278C160.819 96.5004 159.93 96.6057 158.982 96.6057C156.289 96.6057 154.943 95.5171 154.943 93.34L154.932 93.3283ZM156.851 89.8051H160.117V87.5928C160.117 86.5043 159.567 85.9658 158.478 85.9658C157.39 85.9658 156.84 86.5043 156.84 87.5928V89.8051H156.851Z" fill="#223B52"/>
<path d="M163.664 87.4288C163.664 86.4105 163.956 85.6614 164.553 85.1581C165.138 84.6547 166.11 84.4089 167.433 84.4089C168.322 84.4089 169.118 84.526 169.809 84.7367V86.5275C169.142 86.2817 168.404 86.153 167.596 86.153C166.789 86.153 166.25 86.2583 165.993 86.4807C165.724 86.6914 165.595 87.0426 165.595 87.5342V87.9556C165.595 88.3301 165.677 88.611 165.829 88.81C165.981 89.009 166.274 89.208 166.707 89.4304L168.474 90.3902C169.668 91.034 170.265 91.8885 170.265 92.977V93.5155C170.265 95.5755 168.931 96.5939 166.262 96.5939C165.361 96.5939 164.506 96.4885 163.699 96.2778V94.4636C164.413 94.6977 165.185 94.8147 166.04 94.8147C166.894 94.8147 167.479 94.6977 167.807 94.4753C168.135 94.2529 168.299 93.9134 168.299 93.4569V93.1058C168.299 92.7663 168.217 92.5088 168.041 92.2981C167.866 92.0991 167.526 91.865 167.011 91.5958L165.326 90.718C164.214 90.1444 163.664 89.2665 163.664 88.0726V87.4054V87.4288Z" fill="#223B52"/>
<path d="M172.091 87.5811C172.091 86.5862 172.384 85.7902 172.969 85.1933C173.554 84.608 174.444 84.3037 175.638 84.3037C176.832 84.3037 177.721 84.5963 178.318 85.1933C178.904 85.7785 179.208 86.5745 179.208 87.5811V93.4336C179.208 94.4286 178.915 95.2245 178.318 95.8215C177.721 96.4067 176.832 96.711 175.638 96.711C174.444 96.711 173.554 96.4184 172.969 95.8215C172.384 95.2362 172.091 94.4403 172.091 93.4336V87.5811ZM177.242 87.6279C177.242 86.5628 176.703 86.0243 175.638 86.0243C174.573 86.0243 174.034 86.5628 174.034 87.6279V93.3985C174.034 94.4637 174.573 95.0021 175.638 95.0021C176.703 95.0021 177.242 94.4637 177.242 93.3985V87.6279Z" fill="#223B52"/>
<path d="M183.785 82.3723V84.5143H186.196V86.1999H183.785V93.6326C183.785 94.4402 184.206 94.8382 185.037 94.8382C185.435 94.8382 185.891 94.7562 186.395 94.5924V96.3598C186.395 96.3598 186.313 96.3715 186.196 96.4066C186.079 96.4418 185.962 96.4652 185.833 96.4886C185.458 96.5705 185.096 96.6173 184.744 96.6173C182.801 96.6173 181.83 95.6692 181.83 93.7847V86.1999H180.577V84.5143H181.888L182.474 82.3723H183.785Z" fill="#223B52"/>
<path d="M188.08 84.8069C188.876 84.5377 189.883 84.4089 191.1 84.4089C193.476 84.4089 194.659 85.4858 194.659 87.6395V96.4885H192.786V95.6341C192.177 96.2427 191.369 96.5471 190.375 96.5471C188.455 96.5471 187.495 95.5872 187.495 93.6559V92.9653C187.495 92.1928 187.694 91.5607 188.104 91.0808C188.502 90.6009 189.157 90.238 190.047 89.9922L192.774 89.2431V87.6395C192.774 87.1245 192.634 86.7499 192.353 86.5275C192.072 86.2934 191.487 86.1881 190.597 86.1881C189.707 86.1881 188.865 86.3286 188.092 86.6095V84.8186L188.08 84.8069ZM189.426 93.059V93.6793C189.426 94.1358 189.532 94.4753 189.754 94.6977C189.965 94.9201 190.398 95.0254 191.03 95.0254C191.662 95.0254 192.247 94.8147 192.774 94.3816V90.9052L190.796 91.4437C190.258 91.5958 189.895 91.7831 189.707 92.0172C189.532 92.2513 189.438 92.5908 189.438 93.0473L189.426 93.059Z" fill="#223B52"/>
<path d="M207.054 82.3723H209.091L206.13 96.5003H203.379L200.394 82.3723H202.396C203.426 87.4991 204.058 90.7531 204.304 92.1577C204.549 93.5506 204.701 94.3934 204.748 94.686C204.877 94.1125 205.053 93.1527 205.275 91.8066C205.497 90.4605 205.65 89.5475 205.732 89.091L207.043 82.384L207.054 82.3723Z" fill="#223B52"/>
<path d="M210.694 84.8069C211.49 84.5377 212.497 84.4089 213.714 84.4089C216.09 84.4089 217.273 85.4858 217.273 87.6395V96.4885H215.4V95.6341C214.791 96.2427 213.983 96.5471 212.989 96.5471C211.069 96.5471 210.109 95.5872 210.109 93.6559V92.9653C210.109 92.1928 210.308 91.5607 210.718 91.0808C211.116 90.6009 211.771 90.238 212.661 89.9922L215.388 89.2431V87.6395C215.388 87.1245 215.248 86.7499 214.967 86.5275C214.686 86.2934 214.101 86.1881 213.211 86.1881C212.321 86.1881 211.479 86.3286 210.706 86.6095V84.8186L210.694 84.8069ZM212.052 93.059V93.6793C212.052 94.1358 212.158 94.4753 212.38 94.6977C212.591 94.9201 213.024 95.0254 213.656 95.0254C214.288 95.0254 214.873 94.8147 215.4 94.3816V90.9052L213.422 91.4437C212.883 91.5958 212.52 91.7831 212.333 92.0172C212.158 92.2513 212.064 92.5908 212.064 93.0473L212.052 93.059Z" fill="#223B52"/>
<path d="M219.965 81.3306H221.92V96.5003H219.965V81.3306Z" fill="#223B52"/>
<path d="M224.717 81.3306H226.672V96.5003H224.717V81.3306Z" fill="#223B52"/>
<path d="M229.259 93.3283V87.5811C229.259 86.5862 229.551 85.7902 230.137 85.1933C230.722 84.608 231.611 84.3037 232.805 84.3037C233.999 84.3037 234.877 84.5963 235.451 85.1933C236.024 85.7785 236.305 86.5745 236.305 87.5811V91.397H231.178V93.2346C231.178 93.7848 231.354 94.1945 231.693 94.4637C232.033 94.7329 232.63 94.8616 233.484 94.8616C234.339 94.8616 235.17 94.7329 235.977 94.4871V96.278C235.146 96.5004 234.257 96.6057 233.309 96.6057C230.617 96.6057 229.27 95.5171 229.27 93.34L229.259 93.3283ZM231.178 89.8051H234.444V87.5928C234.444 86.5043 233.894 85.9658 232.805 85.9658C231.717 85.9658 231.167 86.5043 231.167 87.5928V89.8051H231.178Z" fill="#223B52"/>
<path d="M243.633 84.5144H245.576L242.427 99.5905H240.531L241.151 96.4887H240.32L237.78 84.5144H239.735C240.8 89.7466 241.455 93.2581 241.678 95.0372C241.9 93.3868 242.193 91.6545 242.556 89.8285L243.644 84.5144H243.633Z" fill="#223B52"/>
<path d="M253.465 90.9989V96.5003H251.51V82.3723H255.302C256.414 82.3723 257.257 82.6532 257.854 83.2034C258.439 83.7535 258.744 84.526 258.744 85.521V87.7683C258.744 89.3134 258.158 90.3083 256.976 90.7531L259.224 96.5003H257.058L255.033 90.9989H253.476H253.465ZM253.465 84.0812V89.3485H255.127C255.712 89.3485 256.133 89.2198 256.391 88.9505C256.649 88.6813 256.777 88.2834 256.777 87.7449V85.638C256.777 84.5963 256.227 84.0812 255.127 84.0812H253.465Z" fill="#223B52"/>
<path d="M261.167 93.3283V87.5811C261.167 86.5862 261.459 85.7902 262.044 85.1933C262.63 84.608 263.519 84.3037 264.713 84.3037C265.907 84.3037 266.785 84.5963 267.358 85.1933C267.932 85.7785 268.213 86.5745 268.213 87.5811V91.397H263.086V93.2346C263.086 93.7848 263.262 94.1945 263.601 94.4637C263.941 94.7329 264.538 94.8616 265.392 94.8616C266.246 94.8616 267.078 94.7329 267.885 94.4871V96.278C267.054 96.5004 266.165 96.6057 265.216 96.6057C262.524 96.6057 261.178 95.5171 261.178 93.34L261.167 93.3283ZM263.086 89.8051H266.352V87.5928C266.352 86.5043 265.802 85.9658 264.713 85.9658C263.625 85.9658 263.074 86.5043 263.074 87.5928V89.8051H263.086Z" fill="#223B52"/>
<path d="M271.057 83.9759C271.057 81.951 272.099 80.9326 274.183 80.9326C274.557 80.9326 274.885 80.956 275.166 81.0146V82.6181C274.955 82.5713 274.709 82.5596 274.417 82.5596C273.48 82.5596 273.024 83.0278 273.024 83.9525V84.5144H275.084V86.1179H273.024V96.4886H271.069V86.1179H269.887V84.5144H271.069V83.9759H271.057Z" fill="#223B52"/>
<path d="M279.918 94.768C280.503 94.768 281.065 94.5925 281.627 94.253V84.5261H283.605V96.5004H281.732V95.9385C281.007 96.3365 280.211 96.5472 279.333 96.5472C278.455 96.5472 277.776 96.3014 277.296 95.7981C276.816 95.2948 276.571 94.5807 276.571 93.6326V84.5261H278.549V93.3634C278.549 94.3115 279.005 94.7797 279.93 94.7797L279.918 94.768Z" fill="#223B52"/>
<path d="M294.105 85.2869H293.391C293.075 85.2869 292.805 85.3455 292.583 85.4742C292.969 85.9658 293.168 86.6096 293.168 87.4055V89.1145C293.168 90.086 292.876 90.8468 292.279 91.3853C291.682 91.9237 290.792 92.2046 289.598 92.2163C288.943 92.2163 288.615 92.5206 288.615 93.1293C288.615 93.4219 288.697 93.6326 288.873 93.7497C289.048 93.8784 289.352 93.937 289.797 93.937H291.003C292.969 93.937 293.964 94.768 293.964 96.4184V96.7696C293.964 98.6424 292.642 99.5788 289.985 99.5788H289.177C287.667 99.5788 286.52 99.333 285.736 98.8531V97.0154C286.649 97.6123 287.784 97.9167 289.13 97.9167H289.797C290.628 97.9167 291.225 97.823 291.565 97.624C291.904 97.4251 292.08 97.1324 292.08 96.7462V96.5589C292.08 96.2311 291.998 95.9736 291.822 95.8215C291.647 95.6576 291.307 95.5874 290.816 95.5874H289.54C287.749 95.5874 286.848 94.9787 286.848 93.7731V93.4453C286.848 92.6728 287.21 92.1929 287.948 92.029C286.543 91.6311 285.841 90.6595 285.841 89.1145V87.4055C285.841 86.4223 286.145 85.6615 286.742 85.1114C287.339 84.5612 288.194 84.3037 289.271 84.3037C290.347 84.3037 291.19 84.4676 291.775 84.807C292.068 83.9174 292.723 83.4727 293.754 83.4727H294.07V85.2869H294.105ZM291.214 89.1028V87.4407C291.214 86.9256 291.085 86.5511 290.816 86.3053C290.546 86.0595 290.125 85.9424 289.528 85.9424C288.931 85.9424 288.498 86.0595 288.24 86.3053C287.971 86.5511 287.843 86.9256 287.843 87.4407V89.1028C287.843 89.6178 287.971 89.9924 288.24 90.2382C288.498 90.484 288.931 90.601 289.528 90.601C290.125 90.601 290.558 90.484 290.816 90.2382C291.073 89.9924 291.214 89.6178 291.214 89.1028Z" fill="#223B52"/>
<path d="M295.731 93.3283V87.5811C295.731 86.5862 296.024 85.7902 296.609 85.1933C297.195 84.608 298.084 84.3037 299.278 84.3037C300.472 84.3037 301.35 84.5963 301.923 85.1933C302.497 85.7785 302.778 86.5745 302.778 87.5811V91.397H297.651V93.2346C297.651 93.7848 297.827 94.1945 298.166 94.4637C298.506 94.7329 299.102 94.8616 299.957 94.8616C300.811 94.8616 301.642 94.7329 302.45 94.4871V96.278C301.619 96.5004 300.73 96.6057 299.781 96.6057C297.089 96.6057 295.743 95.5171 295.743 93.34L295.731 93.3283ZM297.639 89.8051H300.905V87.5928C300.905 86.5043 300.355 85.9658 299.266 85.9658C298.178 85.9658 297.628 86.5043 297.628 87.5928V89.8051H297.639Z" fill="#223B52"/>
<path d="M389.126 78.5915C388.88 78.5096 388.786 86.8552 387.92 86.9606C384.772 87.3352 387.007 81.8338 385.685 81.3773C384.678 81.0261 385.181 85.2283 383.004 82.7117C382.08 81.6348 383.332 78.135 382.852 77.7604C381.74 76.8943 381.19 79.563 381.085 79.7035C381.307 79.3991 377.655 76.3324 377.316 75.8759C380.066 74.4947 383.309 72.7624 386.446 72.4815C387.382 72.3995 387.546 72.5517 388.166 72.6102C388.576 72.657 389.266 72.2708 389.711 72.3176C390.191 72.3644 389.817 73.4998 390.238 73.5232C390.753 73.5466 390.261 72.1069 390.776 71.8845C392.544 71.1237 391.385 71.7206 392.017 72.5283C392.122 72.657 393.152 76.0398 393.223 76.0515C393.972 76.1568 392.719 71.4982 393.082 71.3461C393.34 71.2407 393.586 71.6036 393.82 72.2005C393.82 72.0133 393.831 71.826 393.831 71.627C393.831 70.9013 393.796 70.1873 393.738 69.485C392.907 69.602 391.994 69.684 391.666 69.801C390.776 70.1405 384.397 72.5049 383.168 72.4932C383.262 72.5049 383.355 72.54 383.332 72.6453C383.25 73.0199 381.319 72.739 381.073 72.9029C381.436 72.9848 376.122 73.7807 376.215 73.5115C376.286 73.6052 376.367 73.6871 376.461 73.769C376.414 74.0499 375.361 73.769 375.244 73.9329C375.045 74.2372 375.794 74.2489 375.829 74.3894C376.016 75.0917 373.394 74.1904 373.277 74.4713C373.008 75.1385 375.092 74.8693 372.774 75.279C372.634 75.3024 371.112 74.5299 370.995 74.8459C370.831 75.2907 371.791 75.0683 371.1 75.6184C371.077 75.6418 370.211 76.2973 370.175 76.2739C370.058 76.192 370.293 75.993 370.175 75.9227C370.374 76.0398 368.268 76.9762 368.244 76.6016C368.268 77.0815 365.201 78.5915 364.557 78.2872C363.773 77.9243 364.065 77.6083 362.684 77.7136C362.204 77.7487 362.134 78.0648 361.771 78.1584C360.601 78.4744 359.465 78.7203 358.26 79.0129C357.042 79.3055 356.258 80.0429 355.216 80.1834C355.205 80.1834 353.636 79.7971 353.379 79.8088C353.519 79.9142 352.676 81.4124 352.489 80.5111C352.583 80.4409 352.688 80.3707 352.782 80.3004C352.805 79.446 350.476 80.5696 350.335 79.9727C350.289 79.7854 350.675 79.9142 350.675 79.7971C350.675 79.8673 348.486 78.8139 348.498 79.247C348.509 79.7386 349.692 79.879 349.739 80.0195C349.914 80.4994 347.561 79.762 347.257 79.7971C347.081 79.8205 347.737 80.8272 347.081 80.9793C346.847 81.0378 346.566 80.5814 346.367 80.6165C345.068 80.9091 342.856 80.4292 342.353 80.3004C340.749 79.8908 339.567 78.9895 338.279 78.5915C337.413 78.3223 335.376 78.2989 334.662 77.5966C334.3 77.2337 334.943 75.4663 333.984 75.7121C333.117 75.9345 333.609 76.7655 333.644 76.824C333.738 77.023 331.256 77.5849 331.151 77.936C331.046 77.936 330.929 77.9477 330.823 77.9594C330.636 77.8307 330.46 77.8307 330.273 77.9594C329.126 78.4042 327.675 80.3473 326.855 81.3071C323.531 81.2368 325.942 80.8389 326.059 80.1366C326.071 80.0312 324.011 79.9493 324.011 79.9493C324.046 79.5045 326.387 78.6032 326.75 78.4276C327.663 77.9945 328.19 77.6902 329.196 77.0347C329.828 76.625 332.204 76.5314 332.427 75.3375C332.45 75.2204 331.514 73.3359 331.397 73.3593C332.052 73.2189 331.83 73.2189 332.45 73.4998C333.375 74.2138 332.872 74.3075 334.311 74.0968C335.493 73.9212 336.723 73.1604 337.858 72.8092C340.55 71.9664 343.02 72.0016 345.806 71.9664C347.187 71.943 348.978 71.9664 350.125 71.9079C352.056 71.7909 352.454 71.2876 353.496 70.2575C353.73 70.0234 354.842 68.9231 354.573 69.0753C355.603 68.4901 357.417 69.9064 357.686 68.7827C357.838 68.1506 355.205 66.9684 354.491 66.5353C351.19 64.522 347.702 62.5673 344.635 60.1912C343.757 59.5123 343.067 58.6578 342.189 58.5174C341.206 58.3535 339.356 59.3835 338.408 59.7347C336.231 60.5423 333.902 61.1393 331.9 62.3449C330.238 63.3515 327.885 66.1373 325.989 66.5938C325.86 66.5938 325.79 66.6641 325.743 66.7694C323.156 68.6656 320.581 70.5618 318.088 72.5985C317.819 72.8209 317.245 73.3476 316.531 74.0148C317.901 90.2965 333.117 103.219 355.123 103.219C371.522 103.219 384.409 95.8213 390.308 85.158C389.255 83.6832 389.898 78.849 389.126 78.5798V78.5915ZM324.9 67.8814C324.9 67.8814 324.924 67.9048 324.936 67.9165C324.877 67.9516 324.865 67.9282 324.9 67.8814ZM333.211 79.3991C332.965 79.5864 332.357 78.5798 332.064 78.6266C332.041 78.4276 332.064 78.2403 332.193 78.0882C333.035 77.5497 333.773 77.6317 334.112 77.7253C333.796 77.6434 334.826 79.1065 335.177 79.165C334.803 79.2119 333.199 78.6968 333.305 78.5915C333.094 78.8139 333.656 79.0831 333.223 79.4109L333.211 79.3991Z" fill="#223B52"/>
<path d="M393.433 66.9099C393.164 65.3297 392.778 63.7846 392.251 62.2864C392.193 62.1693 392.134 62.064 392.087 61.9469C390.765 58.6695 389.255 58.6812 385.708 59.1845C380.581 59.9103 374.705 61.5373 371.51 65.8915C371.416 65.8915 371.393 65.9618 371.405 66.0437C371.405 66.0671 371.393 66.1022 371.381 66.1256C368.314 67.8229 371.44 70.9598 373.757 69.9181C375.045 69.5201 376.73 70.6087 378.1 70.1756C378.287 70.1171 380.956 67.3781 381.424 68.1623C381.682 68.5837 379.856 69.602 380.066 70.0234C380.16 70.2107 388.705 67.8814 389.302 67.7409C390.027 67.5771 392.438 67.3547 393.422 66.8982L393.433 66.9099Z" fill="#223B52"/>
<path d="M318.322 62.8131C320.991 61.1627 324.936 60.2848 327.944 59.2197C331.186 58.0609 334.264 56.8904 337.987 56.5743C340.89 56.3285 342.224 57.4873 344.495 59.0441C346.016 60.0975 349.774 63.4452 351.74 63.4803C354.35 66.5002 357.663 64.6742 360.484 63.4803C363.188 62.3332 366.149 61.2563 369.005 60.4955C374.05 59.1494 379.153 57.8385 384.409 57.4639C386.738 57.3 389.103 57.2883 390.73 58.7163C385.041 47.5849 371.931 40 355.111 40C335.763 40 321.658 49.7386 317.596 63.3515C317.819 63.1409 318.065 62.9536 318.311 62.7897L318.322 62.8131Z" fill="#223B52"/>
<path d="M385.252 78.8724C385.661 78.732 385.521 77.6902 385.591 77.4678C385.345 76.4612 384.701 79.0714 385.252 78.8724Z" fill="#223B52"/>
<path d="M392.263 80.4058C391.97 80.4292 391.935 80.874 392.005 81.5061C392.146 81.1432 392.275 80.7803 392.392 80.4175C392.345 80.4175 392.31 80.3941 392.263 80.4058Z" fill="#223B52"/>
<path d="M331.151 77.9594C331.268 77.6083 333.738 77.0464 333.644 76.8474C333.621 76.7889 333.117 75.9579 333.984 75.7355C334.943 75.4897 334.288 77.2571 334.662 77.62C335.376 78.3223 337.413 78.3457 338.279 78.6149C339.567 79.0129 340.749 79.9142 342.353 80.3238C342.856 80.4526 345.068 80.9325 346.367 80.6399C346.555 80.5931 346.836 81.0613 347.081 81.0027C347.737 80.8506 347.081 79.8439 347.257 79.8205C347.561 79.7737 349.914 80.5228 349.739 80.0429C349.692 79.9025 348.509 79.762 348.498 79.2704C348.486 78.8373 350.663 79.8908 350.675 79.8205C350.675 79.9376 350.289 79.8205 350.335 79.9961C350.476 80.5931 352.805 79.4694 352.782 80.3238C352.688 80.3941 352.595 80.476 352.489 80.5345C352.688 81.4943 353.636 79.7269 353.332 79.8322C353.449 79.7854 355.193 80.2185 355.205 80.2185C356.247 80.078 357.031 79.3406 358.248 79.048C359.454 78.7554 360.589 78.4979 361.76 78.1935C362.122 78.0999 362.204 77.7839 362.673 77.7487C364.054 77.6434 363.761 77.9594 364.545 78.3223C365.189 78.6266 368.256 77.1167 368.232 76.6368C368.256 77.0113 370.363 76.0749 370.164 75.9579C370.281 76.0281 370.035 76.2154 370.164 76.309C370.199 76.3324 371.065 75.6769 371.088 75.6535C371.779 75.1034 370.819 75.3258 370.983 74.881C371.1 74.565 372.622 75.3375 372.762 75.3141C375.092 74.8927 372.996 75.1736 373.266 74.5064C373.383 74.2138 375.993 75.1151 375.817 74.4245C375.782 74.284 375.021 74.284 375.232 73.968C375.349 73.8041 376.403 74.0851 376.449 73.8041C376.356 73.7222 376.274 73.6403 376.204 73.5466C376.11 73.8158 381.424 73.0199 381.061 72.938C381.307 72.7741 383.25 73.055 383.32 72.6805C383.367 72.4464 382.969 72.5634 382.946 72.4581C383.098 73.0199 390.683 70.199 391.654 69.8361C392.134 69.6606 393.878 69.5786 394.779 69.3211C395.084 69.2392 398.256 68.1857 398.256 68.4549C398.256 68.256 397.694 68.4432 397.729 68.2794C397.788 67.9867 401.007 67.4015 401.615 67.4132C401.92 67.4132 404.073 68.4432 404.366 67.6824C404.319 67.5888 404.261 67.5185 404.179 67.46C403.991 67.9282 411.646 67.261 411.881 67.6122C411.834 67.7175 411.892 67.7526 411.986 67.8112C412.407 68.057 412.864 68.2208 413.344 68.3145C413.379 69.2275 402.833 69.0285 402.189 69.0402C400.843 69.0753 396.067 68.6656 395.353 69.9649C395.049 70.515 395.634 75.0449 395.774 75.4428C395.622 75.7355 395.938 77.62 395.353 77.5029C394.943 77.4093 394.077 70.9832 393.094 71.3695C392.731 71.51 393.995 76.1686 393.234 76.0749C393.164 76.0749 392.134 72.6805 392.029 72.5517C391.397 71.7441 392.556 71.1588 390.788 71.9079C390.285 72.1303 390.765 73.57 390.25 73.5466C389.828 73.5232 390.203 72.3878 389.723 72.341C389.266 72.2942 388.576 72.6805 388.178 72.6336C387.569 72.5751 387.405 72.4112 386.457 72.5049C383.32 72.7858 380.078 74.5181 377.327 75.8993C370.854 78.4979 364.475 81.8104 357.909 84.2333C350.055 87.1245 343.769 87.4288 335.599 86.3871C335.306 86.153 332.813 85.6145 332.649 85.673C332.076 85.7667 331.631 85.3453 331.326 85.3102C329.676 85.1112 327.92 85.5443 326.305 85.8603C326.305 85.24 328.389 82.8872 328.798 82.501C329.664 81.6933 330.495 81.6933 331.467 81.2017C331.818 81.0261 332.005 81.3422 332.357 80.9442C333.48 79.6684 331.736 79.7854 332.076 78.6617C332.368 78.6266 332.989 79.6215 333.223 79.4343C333.656 79.1182 333.094 78.8373 333.305 78.6149C333.199 78.732 335.131 79.3523 335.271 79.165C335.06 79.446 333.785 77.6434 334.124 77.7487C333.785 77.6551 333.047 77.5849 332.204 78.1116C332.087 77.7253 330.893 78.5915 331.163 77.9828L331.151 77.9594ZM410.277 68.3379C410.78 68.5369 411.061 68.4549 411.12 68.0921C410.593 67.5536 408.685 68.373 408.732 68.3964C408.673 68.373 410.382 68.3379 410.265 68.3262L410.277 68.3379Z" fill="#A3D3FF"/>
<path d="M325.989 66.6172C327.885 66.1608 330.238 63.3867 331.9 62.3683C333.902 61.151 336.219 60.5657 338.408 59.7581C339.356 59.4069 341.206 58.3769 342.189 58.5408C343.067 58.6812 343.757 59.5357 344.635 60.2146C347.702 62.5907 351.19 64.5455 354.491 66.5587C355.193 66.9918 357.838 68.1857 357.686 68.8061C357.417 69.9298 355.603 68.5135 354.573 69.0987C354.842 68.9466 353.73 70.0468 353.496 70.2809C352.454 71.311 352.056 71.826 350.125 71.9313C348.989 72.0016 347.187 71.9782 345.806 71.9899C343.032 72.0367 340.55 71.9899 337.858 72.8326C336.723 73.1955 335.493 73.9446 334.311 74.1202C332.872 74.3426 333.375 74.2489 332.45 73.5232C332.415 73.2774 331.444 72.0718 331.268 71.7558C331.151 71.5334 329.337 71.1471 329.021 70.9013C328.669 70.6321 327.698 69.883 327.476 69.5435C327.124 69.0168 327.557 68.2911 327.347 67.975C327.078 67.5654 324.549 68.6773 325.731 66.7811C325.86 66.7811 325.954 66.746 325.977 66.6055L325.989 66.6172Z" fill="#A3D3FF"/>
<path d="M332.064 78.6266C331.724 79.762 333.457 79.6332 332.345 80.9091C331.994 81.3071 331.818 80.991 331.455 81.1666C330.484 81.6582 329.653 81.6582 328.787 82.4659C328.365 82.8521 326.282 85.2048 326.293 85.8252C324.795 86.2934 323.449 87.2649 321.74 87.581C320.499 87.8151 319.247 87.9555 318.018 88.1896C317.374 88.3184 313.664 89.208 313.476 88.2247C313.172 86.6094 314.577 86.0593 315.923 85.4623C316.988 85.5443 317.76 84.5611 318.556 84.1514C320.043 83.4023 321.213 83.2852 322.77 83.016C324.186 82.7702 325.603 83.0745 326.879 81.3188C327.698 80.359 329.149 78.4159 330.296 77.9711C330.484 78.0414 330.659 78.0648 330.847 77.9711C330.952 77.9711 331.069 77.9594 331.174 77.9477C330.905 78.5564 332.099 77.6902 332.216 78.0765C332.076 78.2286 332.064 78.4159 332.087 78.6149L332.064 78.6266Z" fill="#223B52"/>
<path d="M326.855 81.3305C325.579 83.0862 324.163 82.7702 322.747 83.0277C321.19 83.3086 320.019 83.414 318.533 84.1631C317.737 84.5611 316.953 85.5443 315.899 85.4741C315.911 84.6664 315.326 84.9473 316.016 83.8705C316.016 83.8588 318.31 82.2318 318.357 82.5127C318.357 82.5127 315.525 82.6883 315.408 82.5946C315.314 82.5244 320.382 80.2185 320.417 80.5228C320.499 81.1666 314.787 80.8038 315.302 80.3941C316.73 79.2587 321.986 79.9961 324.011 79.9727C324.011 79.9727 326.071 80.0546 326.059 80.16C325.954 80.8623 323.543 81.2485 326.855 81.3305Z" fill="#A3D3FF"/>
<path d="M332.626 85.6496V85.7316C332.345 85.8603 332.052 85.954 331.736 85.8954C331.678 85.9188 331.631 85.8954 331.596 85.8369C331.549 85.8369 331.514 85.8252 331.467 85.8135C330.964 85.8486 330.46 85.9423 329.945 85.9306C329.887 85.9306 329.828 85.954 329.77 85.954C329.653 86.071 329.512 86.071 329.36 86.0359C329.325 86.0359 329.278 86.0476 329.231 86.0593C329.184 86.1295 329.126 86.1412 329.056 86.0944C329.021 86.0944 328.974 86.1178 328.939 86.1178C328.693 86.2583 328.435 86.3168 328.154 86.3519C328.119 86.3636 328.072 86.387 328.037 86.3988C327.78 86.7148 324.526 88.1077 324.257 87.9906C324.175 88.0375 324.093 88.0843 324.011 88.1194C323.999 88.2247 323.917 88.2481 323.835 88.2598C323.835 88.2598 323.824 88.2716 323.812 88.2833C323.812 88.3418 323.777 88.3769 323.707 88.3652C323.695 88.3652 323.683 88.3886 323.671 88.4003V88.4237C323.508 88.611 323.309 88.7749 323.18 88.9856C323.145 89.0441 323.11 89.1026 323.074 89.1611C323.145 89.4186 323.004 89.5591 322.84 89.7347C322.571 90.0273 322.208 90.238 322.009 90.5892C322.009 90.6126 321.986 90.6243 321.974 90.6477C321.74 90.753 321.518 90.8935 321.33 91.0574L321.237 91.1042C321.014 91.1159 320.886 91.2329 320.862 91.4553C320.804 91.4904 320.815 91.549 320.792 91.5958C320.558 91.748 320.242 92.8365 320.909 92.4503C325.158 91.4319 333.176 90.3316 335.564 86.3285C335.259 86.0944 332.778 85.556 332.614 85.6145L332.626 85.6496Z" fill="#223B52"/>
<path d="M371.381 66.1256C371.381 66.1256 371.393 66.0671 371.405 66.0437C371.463 66.0086 371.522 65.9735 371.51 65.8915C374.705 61.5256 380.581 59.8986 385.708 59.1845C389.255 58.6812 390.765 58.6695 392.087 61.9469C392.497 62.9653 393.106 63.7963 393.574 64.6508C394.616 66.5353 394.662 65.634 393.773 66.6758C393.246 67.2961 390.133 67.5536 389.302 67.7526C388.705 67.8931 380.148 70.2107 380.066 70.0351C379.856 69.6254 381.682 68.6071 381.424 68.174C380.956 67.3898 378.287 70.1288 378.1 70.1873C376.73 70.6204 375.045 69.5318 373.757 69.9298C373.675 68.5369 374.214 68.7593 374.506 67.7877C374.354 68.3028 374.354 65.4116 374.857 66.0671C374.553 65.6691 371.826 68.49 371.381 66.1373L371.381 66.1256Z" fill="#A3D3FF"/>
<path d="M404.342 64.2294C404.132 64.1007 403.383 64.2528 403.312 64.1124C403.149 63.7729 405.443 63.1877 405.349 63.0355C405.396 63.1057 404.448 64.1358 404.342 64.2294Z" fill="#A3D3FF"/>
<path d="M330.823 77.9711C330.648 78.0765 330.46 78.0531 330.273 77.9711C330.449 77.8307 330.636 77.8307 330.823 77.9711Z" fill="#A3D3FF"/>
<path d="M385.252 78.8724C385.661 78.732 385.521 77.6902 385.591 77.4678C385.345 76.4495 384.69 79.0714 385.252 78.8724Z" fill="#A3D3FF"/>
<path d="M420.671 67.2025C420.671 67.2025 420.706 67.2025 420.706 67.1557C420.694 67.1674 420.694 67.1908 420.671 67.2025Z" fill="#223B52"/>
<path d="M420.437 66.6758C420.25 66.5587 420.25 66.5587 420.437 66.6758C420.238 66.4534 419.945 66.2544 419.536 66.2544C416.726 65.5638 414.268 63.4335 411.541 62.8599C411.143 62.7897 408.802 62.2864 408.896 63.293C408.954 63.9017 413.929 66.9333 411.869 67.6004C411.822 67.7058 411.881 67.7409 411.974 67.7994C412.396 68.0452 412.852 68.2091 413.332 68.3028C414.233 68.2559 415.17 68.1623 416.047 67.975C416.129 67.9867 416.211 68.0101 416.235 67.9048C416.188 67.8814 416.153 67.8814 416.118 67.9048C416.141 67.8814 416.176 67.8814 416.235 67.9048C416.516 67.8345 416.797 67.7877 417.089 67.776C417.113 67.7526 417.124 67.7409 417.148 67.7292C417.124 67.7292 417.101 67.7409 417.089 67.776C417.136 67.7994 417.183 67.7994 417.218 67.7643C417.733 67.7526 418.236 67.7292 418.751 67.7175C418.751 67.7175 418.845 67.7526 418.88 67.7058C419.021 67.7058 419.173 67.7058 419.313 67.7058C419.337 67.6707 419.372 67.6707 419.395 67.7058C419.594 67.7058 419.793 67.6941 420.004 67.6824C420.086 67.7058 420.168 67.7058 420.238 67.6473C420.238 67.6473 420.355 67.6239 420.413 67.6239C420.87 67.5887 420.531 67.2727 420.144 67.3078C420.121 67.3078 420.097 67.2961 420.074 67.2844C420.074 67.2844 420.074 67.2142 420.062 67.1791C420.273 67.1205 420.46 67.1557 420.648 67.2493C420.671 67.2376 420.671 67.2142 420.683 67.2025C420.835 67.0503 420.683 66.8747 420.413 66.7226L420.437 66.6758ZM412.817 67.0503C412.911 66.7109 417.347 67.2727 417.569 67.2844C417.113 67.3546 412.712 67.4366 412.817 67.0503Z" fill="#223B52"/>
<path d="M412.817 67.0503C412.911 66.7109 417.347 67.2727 417.569 67.2844C417.113 67.3546 412.712 67.4366 412.817 67.0503Z" fill="#FD523B"/>
<defs>
<filter id="filter0_d_102_15178" x="40" y="82.6882" width="460.744" height="108.812" filterUnits="userSpaceOnUse" color-interpolation-filters="sRGB">
<feFlood flood-opacity="0" result="BackgroundImageFix"/>
<feColorMatrix in="SourceAlpha" type="matrix" values="0 0 0 0 0 0 0 0 0 0 0 0 0 0 0 0 0 0 127 0" result="hardAlpha"/>
<feOffset dx="2" dy="1.5"/>
<feComposite in2="hardAlpha" operator="out"/>
<feColorMatrix type="matrix" values="0 0 0 0 0.133333 0 0 0 0 0.231373 0 0 0 0 0.321569 0 0 0 1 0"/>
<feBlend mode="normal" in2="BackgroundImageFix" result="effect1_dropShadow_102_15178"/>
<feBlend mode="normal" in="SourceGraphic" in2="effect1_dropShadow_102_15178" result="shape"/>
</filter>
</defs>
</svg>
