<svg width="600" height="460" viewBox="0 0 600 460" fill="none" xmlns="http://www.w3.org/2000/svg">
<g clip-path="url(#clip0_29_999)">
<path d="M599.51 431.151C601.098 427.427 598.667 423.233 595.353 422.351C579.922 424.722 566.02 410.356 549.863 382.367L527.235 343.188C506.627 307.497 496.02 287.506 523.392 267.044L533.784 259.184C536.255 252.148 529.49 242.054 522.98 242.094C500.686 256.813 477.294 271.258 450 287.016C408.706 310.849 369.804 332.369 348.686 342.678C345 347.598 351.569 360.592 358.784 360.161L391.608 345.893C437.843 325.744 442.353 328.724 476.294 387.503L492.451 415.491C496.549 422.566 499.627 428.779 502.039 434.306H594.784C596.392 433.169 598.02 431.994 599.49 431.131" fill="#00AFAA"/>
<path d="M392.49 95.391C361.941 57.0543 336.725 23.0883 323.392 0C315.804 6.25225 291.274 13.8765 276.353 18.7568C262.843 22.8139 221.294 36.5335 181.392 59.563C75.7254 120.557 25.4313 193.428 6.82346 269.454C-6.52948 326.332 0.490124 383.367 21.3333 434.326H112.921C106.706 425.271 100.725 415.863 95.0391 406.044C34.4313 301.108 38.1568 170.202 173.941 91.8434C245.333 50.6452 311.569 44.1382 374.804 108.385C381.431 110.149 393.627 102.192 392.49 95.3714" fill="#00AFAA"/>
<path fill-rule="evenodd" clip-rule="evenodd" d="M20.1373 457.394C20.1373 455.771 21.4541 454.455 23.0784 454.455H590.765C592.389 454.455 593.706 455.771 593.706 457.394C593.706 459.018 592.389 460.334 590.765 460.334H23.0784C21.4541 460.334 20.1373 459.018 20.1373 457.394Z" fill="#5B6135"/>
</g>
<defs>
<clipPath id="clip0_29_999">
<rect width="600" height="459.962" fill="white"/>
</clipPath>
</defs>
</svg>
